<?xml version="1.0" encoding="UTF-8" standalone="no"?><!-- Generator: Gravit.io --><svg xmlns="http://www.w3.org/2000/svg" xmlns:xlink="http://www.w3.org/1999/xlink" style="isolation:isolate" viewBox="0 0 40 40" width="40pt" height="40pt"><defs><clipPath id="_clipPath_7iX2C19y0Y1oHblGgKtWHOmQjRami83C"><rect width="40" height="40"/></clipPath></defs><g clip-path="url(#_clipPath_7iX2C19y0Y1oHblGgKtWHOmQjRami83C)"><g><linearGradient id="_lgradient_0" x1="0.5000000000000002" y1="-0.017045454545454586" x2="0.5" y2="1.011409090909091" gradientTransform="matrix(10.5,0,0,15.23,6.501,18.615)" gradientUnits="userSpaceOnUse"><stop offset="0%" stop-opacity="1" style="stop-color:rgb(109,199,255)"/><stop offset="100%" stop-opacity="1" style="stop-color:rgb(230,171,255)"/></linearGradient><path d=" M 12.5 24.208 L 12.5 18.615 L 11 18.615 L 11 24.208 C 8.46 24.546 6.501 26.563 6.501 28.999 C 6.501 31.67 8.856 33.845 11.751 33.845 C 14.645 33.845 17.001 31.67 17.001 28.999 C 17.001 26.562 15.04 24.545 12.5 24.208 Z  M 11.751 32.46 C 9.683 32.46 8.001 30.908 8.001 28.999 C 8.001 27.09 9.683 25.538 11.751 25.538 C 13.818 25.538 15.501 27.09 15.501 28.999 C 15.501 30.908 13.818 32.46 11.751 32.46 Z " fill="url(#_lgradient_0)"/><linearGradient id="_lgradient_1" x1="0.4999962375609742" y1="-0.0048074975864969005" x2="0.49999623756097406" y2="1.0098052530485029" gradientTransform="matrix(19.5,0,0,36,2,2)" gradientUnits="userSpaceOnUse"><stop offset="0%" stop-opacity="1" style="stop-color:rgb(26,109,255)"/><stop offset="100%" stop-opacity="1" style="stop-color:rgb(200,34,255)"/></linearGradient><path d=" M 16.25 21.028 L 16.25 4.077 C 16.25 2.932 15.24 2 14.001 2 L 9.501 2 C 8.259 2.002 7.252 2.93 7.25 4.077 L 7.25 21.031 C 4.029 22.646 1.938 25.86 2.001 29.163 C 2.092 33.842 6.285 37.802 11.348 37.991 C 14.004 38.102 16.592 37.197 18.503 35.49 C 20.426 33.799 21.51 31.451 21.5 28.999 C 21.5 25.691 19.454 22.61 16.25 21.028 Z  M 17.463 34.492 C 15.83 35.942 13.698 36.691 11.408 36.608 C 7.125 36.449 3.579 33.099 3.501 29.139 C 3.445 26.223 5.384 23.385 8.325 22.079 L 8.75 21.889 L 8.75 15.846 L 12.5 15.846 L 12.5 14.461 L 8.75 14.461 L 8.75 13.076 L 11 13.076 L 11 11.692 L 8.75 11.692 L 8.75 10.307 L 11 10.307 L 11 8.923 L 8.75 8.923 L 8.75 7.538 L 12.5 7.538 L 12.5 6.154 L 8.75 6.154 L 8.75 4.077 C 8.75 3.695 9.087 3.385 9.501 3.385 L 14.001 3.385 C 14.415 3.385 14.75 3.695 14.75 4.077 L 14.75 21.892 L 15.178 22.08 C 18.108 23.362 20 26.078 20 28.999 C 20 31.091 19.099 33.043 17.463 34.492 Z " fill="url(#_lgradient_1)"/><linearGradient id="_lgradient_2" x1="0.5" y1="-6.041666666666667" x2="0.4999999999999984" y2="2.752" gradientTransform="matrix(4.5,0,0,4.154,9.5,26.922)" gradientUnits="userSpaceOnUse"><stop offset="0%" stop-opacity="1" style="stop-color:rgb(26,109,255)"/><stop offset="100%" stop-opacity="1" style="stop-color:rgb(200,34,255)"/></linearGradient><ellipse vector-effect="non-scaling-stroke" cx="11.749939782893227" cy="28.99890644576665" rx="2.2500051614662944" ry="2.0768389573666646" fill="url(#_lgradient_2)"/><linearGradient id="_lgradient_3" x1="0.5" y1="-0.7083333333333333" x2="0.4999999999999984" y2="8.085333333333333" gradientTransform="matrix(13.5,0,0,4.154,24.5,4.769)" gradientUnits="userSpaceOnUse"><stop offset="0%" stop-opacity="1" style="stop-color:rgb(26,109,255)"/><stop offset="100%" stop-opacity="1" style="stop-color:rgb(200,34,255)"/></linearGradient><path d=" M 38 6.154 C 38 5.389 37.328 4.769 36.5 4.769 L 26 4.769 C 25.172 4.769 24.5 5.389 24.5 6.154 L 24.5 7.538 C 24.5 8.303 25.172 8.923 26 8.923 L 36.5 8.923 C 37.328 8.923 38 8.303 38 7.538 L 38 6.154 Z  M 36.5 7.538 L 26 7.538 L 26 6.154 L 36.5 6.154 L 36.5 7.538 Z " fill="url(#_lgradient_3)"/><linearGradient id="_lgradient_4" x1="0.49999999999999956" y1="-2.375" x2="0.49999999999999795" y2="6.418666666666667" gradientTransform="matrix(9,0,0,4.154,29,11.692)" gradientUnits="userSpaceOnUse"><stop offset="0%" stop-opacity="1" style="stop-color:rgb(26,109,255)"/><stop offset="100%" stop-opacity="1" style="stop-color:rgb(200,34,255)"/></linearGradient><path d=" M 38 13.076 C 38 12.312 37.328 11.692 36.5 11.692 L 30.5 11.692 C 29.672 11.692 29 12.312 29 13.076 L 29 14.461 C 29 15.226 29.672 15.846 30.5 15.846 L 36.5 15.846 C 37.328 15.846 38 15.226 38 14.461 L 38 13.076 Z  M 36.5 14.461 L 30.5 14.461 L 30.5 13.076 L 36.5 13.076 L 36.5 14.461 Z " fill="url(#_lgradient_4)"/><linearGradient id="_lgradient_5" x1="0.49999999999999956" y1="-4.041666666666667" x2="0.49999999999999795" y2="4.752" gradientTransform="matrix(9,0,0,4.154,29,18.615)" gradientUnits="userSpaceOnUse"><stop offset="0%" stop-opacity="1" style="stop-color:rgb(26,109,255)"/><stop offset="100%" stop-opacity="1" style="stop-color:rgb(200,34,255)"/></linearGradient><path d=" M 38 19.999 C 38 19.235 37.328 18.615 36.5 18.615 L 30.5 18.615 C 29.672 18.615 29 19.235 29 19.999 L 29 21.384 C 29 22.149 29.672 22.768 30.5 22.768 L 36.5 22.768 C 37.328 22.768 38 22.149 38 21.384 L 38 19.999 Z  M 36.5 21.384 L 30.5 21.384 L 30.5 19.999 L 36.5 19.999 L 36.5 21.384 Z " fill="url(#_lgradient_5)"/><linearGradient id="_lgradient_6" x1="0.5" y1="-5.708333333333333" x2="0.4999999999999984" y2="3.0853333333333337" gradientTransform="matrix(13.5,0,0,4.154,24.5,25.538)" gradientUnits="userSpaceOnUse"><stop offset="0%" stop-opacity="1" style="stop-color:rgb(26,109,255)"/><stop offset="100%" stop-opacity="1" style="stop-color:rgb(200,34,255)"/></linearGradient><path d=" M 38 26.922 C 38 26.157 37.328 25.538 36.5 25.538 L 26 25.538 C 25.172 25.538 24.5 26.157 24.5 26.922 L 24.5 28.307 C 24.5 29.071 25.172 29.691 26 29.691 L 36.5 29.691 C 37.328 29.691 38 29.071 38 28.307 L 38 26.922 Z  M 36.5 28.307 L 26 28.307 L 26 26.922 L 36.5 26.922 L 36.5 28.307 Z " fill="url(#_lgradient_6)"/></g></g></svg>